# xmcd
#
# Track frame offsets: 
#        150
#        15189
#        28065
#        44281
#        62966
#        79832
#        105324
#        120778
#        132799
#        147409
#        159527
#        181340
#
# Disc length: 2743 seconds
#
# Revision: 0
# Processed by: cddbd v1.5.2PL0 Copyright (c) Steve Scherf et al.
# Submitted via: ExactAudioCopyFreeDBPlugin 1.0
#
DISCID=900ab50c
DTITLE=The Jake Levinson Band - Burnin' Daylight
DYEAR=2012
DGENRE=Blues
TTITLE0=Vulture in My Sky
TTITLE1=Git Up and Go
TTITLE2=Backporch Blues
TTITLE3=Don't Take Me Home
TTITLE4=Just Past Mexico
TTITLE5=Ball and Chain
TTITLE6=Burnin' Daylight
TTITLE7=Our Bucks Aint Got No Bang
TTITLE8=Last Big Score
TTITLE9=Don't Go Lookin' for That Bone
TTITLE10=Home Sweet Home
TTITLE11=The Night
EXTD=
EXTT0=
EXTT1=
EXTT2=
EXTT3=
EXTT4=
EXTT5=
EXTT6=
EXTT7=
EXTT8=
EXTT9=
EXTT10=
EXTT11=
PLAYORDER=
